<svg aria-hidden="true" style="position: absolute; width: 0; height: 0; overflow: hidden;" version="1.1" xmlns="http://www.w3.org/2000/svg" xmlns:xlink="http://www.w3.org/1999/xlink">
<defs>
<symbol id="icon-codicon-search" viewBox="0 0 32 32">
<path d="M11.667 0c0.002 0 0.004 0 0.005 0 6.075 0 11 4.925 11 11 0 2.803-1.049 5.362-2.775 7.305l0.010-0.011 10.76 12.213-1.493 1.333-10.733-12.16c-1.848 1.456-4.21 2.336-6.778 2.336-6.076 0-11.001-4.925-11.001-11.001s4.925-11.001 11.001-11.001c0.002 0 0.003 0 0.005 0h-0zM11.667 20c4.971 0 9-4.029 9-9s-4.029-9-9-9v0c-4.971 0-9 4.029-9 9s4.029 9 9 9v0z"></path>
</symbol>


<symbol id="icon-codicon--close" viewBox="0 0 32 32">
<path d="M16 17.414l7.292 7.294 1.416-1.414-7.294-7.294 7.294-7.292-1.414-1.416-7.294 7.294-7.292-7.294-1.414 1.416 7.292 7.292-7.292 7.292 1.414 1.416z"></path>
</symbol>

<symbol id="icon-codicon--star-full" viewBox="0 0 32 32">
<path d="M19.19 12.504l-3.19-10.504-3.19 10.504h-10.81l8.746 6.8-3.246 10.696 8.5-6.61 8.5 6.61-3.246-10.696 8.746-6.8z"></path>
</symbol>

<symbol id="icon-codicon--star-empty" viewBox="0 0 32 32">
<path d="M19.19 12.504l-3.19-10.504-3.19 10.504h-10.81l8.746 6.8-3.246 10.696 8.5-6.61 8.5 6.61-3.246-10.696 8.746-6.8zM4.696 13.444h8.744zM11.77 18.944l-2.614 8.61zM27.304 13.444h-8.744zM9.804 15.244h4.732l1.464-4.816 1.464 4.82h4.734l-3.83 2.98 1.462 4.818-3.83-2.982-3.83 2.98 1.462-4.82-3.83-2.98z"></path>
</symbol>


</defs>
</svg>