<svg aria-hidden="true" style="position: absolute; width: 0; height: 0; overflow: hidden;" version="1.1" xmlns="http://www.w3.org/2000/svg" xmlns:xlink="http://www.w3.org/1999/xlink">
<defs>
<symbol id="icon-codicon-search" viewBox="0 0 32 32">
<path d="M11.667 0c0.002 0 0.004 0 0.005 0 6.075 0 11 4.925 11 11 0 2.803-1.049 5.362-2.775 7.305l0.010-0.011 10.76 12.213-1.493 1.333-10.733-12.16c-1.848 1.456-4.21 2.336-6.778 2.336-6.076 0-11.001-4.925-11.001-11.001s4.925-11.001 11.001-11.001c0.002 0 0.003 0 0.005 0h-0zM11.667 20c4.971 0 9-4.029 9-9s-4.029-9-9-9v0c-4.971 0-9 4.029-9 9s4.029 9 9 9v0z"></path>
</symbol>


<symbol id="icon-codicon--close" viewBox="0 0 32 32">
<path d="M16 17.414l7.292 7.294 1.416-1.414-7.294-7.294 7.294-7.292-1.414-1.416-7.294 7.294-7.292-7.294-1.414 1.416 7.292 7.292-7.292 7.292 1.414 1.416z"></path>
</symbol>
</defs>
</svg>